<mxfile host="app.diagrams.net" modified="2022-10-18T19:08:17.320Z" agent="5.0 (Windows NT 10.0; Win64; x64) AppleWebKit/537.36 (KHTML, like Gecko) Chrome/106.0.0.0 Safari/537.36" etag="CUcbpZFtIBZk1eWCM-A5" version="20.4.1" type="github" pages="2">
  <diagram id="RWWnA3afF1shueA9JQdX" name="Page-1">
    <mxGraphModel dx="3183" dy="3028" grid="1" gridSize="10" guides="1" tooltips="1" connect="1" arrows="1" fold="1" page="1" pageScale="1" pageWidth="1100" pageHeight="850" background="#ffffff" math="0" shadow="0">
      <root>
        <mxCell id="0" />
        <mxCell id="1" parent="0" />
        <mxCell id="VR-UZ06oaNitG5tPslY4-18" value="&lt;font style=&quot;font-size: 48px;&quot;&gt;Workflow and Research topics&amp;nbsp;&lt;/font&gt;" style="text;html=1;align=center;verticalAlign=middle;resizable=0;points=[];autosize=1;strokeColor=none;fillColor=none;" parent="1" vertex="1">
          <mxGeometry x="110" y="-2170" width="680" height="70" as="geometry" />
        </mxCell>
        <mxCell id="VR-UZ06oaNitG5tPslY4-25" value="" style="edgeStyle=orthogonalEdgeStyle;rounded=0;orthogonalLoop=1;jettySize=auto;html=1;fontSize=14;" parent="1" source="VR-UZ06oaNitG5tPslY4-20" target="VR-UZ06oaNitG5tPslY4-24" edge="1">
          <mxGeometry relative="1" as="geometry" />
        </mxCell>
        <mxCell id="VR-UZ06oaNitG5tPslY4-33" value="" style="edgeStyle=orthogonalEdgeStyle;rounded=0;orthogonalLoop=1;jettySize=auto;html=1;fontSize=14;" parent="1" source="VR-UZ06oaNitG5tPslY4-20" target="VR-UZ06oaNitG5tPslY4-32" edge="1">
          <mxGeometry relative="1" as="geometry" />
        </mxCell>
        <mxCell id="VR-UZ06oaNitG5tPslY4-62" value="" style="edgeStyle=orthogonalEdgeStyle;rounded=0;orthogonalLoop=1;jettySize=auto;html=1;fontSize=14;" parent="1" source="VR-UZ06oaNitG5tPslY4-20" target="VR-UZ06oaNitG5tPslY4-61" edge="1">
          <mxGeometry relative="1" as="geometry" />
        </mxCell>
        <mxCell id="VR-UZ06oaNitG5tPslY4-20" value="understanding how a walkie talkie works" style="rounded=1;whiteSpace=wrap;html=1;fontSize=14;" parent="1" vertex="1">
          <mxGeometry x="270" y="-1990" width="295" height="50" as="geometry" />
        </mxCell>
        <mxCell id="VR-UZ06oaNitG5tPslY4-27" value="" style="edgeStyle=orthogonalEdgeStyle;rounded=0;orthogonalLoop=1;jettySize=auto;html=1;fontSize=14;" parent="1" source="VR-UZ06oaNitG5tPslY4-24" target="VR-UZ06oaNitG5tPslY4-26" edge="1">
          <mxGeometry relative="1" as="geometry" />
        </mxCell>
        <mxCell id="VR-UZ06oaNitG5tPslY4-31" value="" style="edgeStyle=orthogonalEdgeStyle;rounded=0;orthogonalLoop=1;jettySize=auto;html=1;fontSize=14;" parent="1" source="VR-UZ06oaNitG5tPslY4-24" target="VR-UZ06oaNitG5tPslY4-30" edge="1">
          <mxGeometry relative="1" as="geometry" />
        </mxCell>
        <mxCell id="VR-UZ06oaNitG5tPslY4-24" value="device components" style="ellipse;whiteSpace=wrap;html=1;fontSize=14;rounded=1;" parent="1" vertex="1">
          <mxGeometry x="732.5" y="-1995" width="120" height="60" as="geometry" />
        </mxCell>
        <mxCell id="VR-UZ06oaNitG5tPslY4-26" value="layout" style="shape=parallelogram;perimeter=parallelogramPerimeter;whiteSpace=wrap;html=1;fixedSize=1;fontSize=14;rounded=1;" parent="1" vertex="1">
          <mxGeometry x="932.5" y="-1995" width="120" height="60" as="geometry" />
        </mxCell>
        <mxCell id="VR-UZ06oaNitG5tPslY4-51" value="" style="edgeStyle=orthogonalEdgeStyle;rounded=0;orthogonalLoop=1;jettySize=auto;html=1;fontSize=14;" parent="1" source="VR-UZ06oaNitG5tPslY4-30" target="VR-UZ06oaNitG5tPslY4-50" edge="1">
          <mxGeometry relative="1" as="geometry" />
        </mxCell>
        <mxCell id="VR-UZ06oaNitG5tPslY4-30" value="working" style="shape=trapezoid;perimeter=trapezoidPerimeter;whiteSpace=wrap;html=1;fixedSize=1;fontSize=14;rounded=1;" parent="1" vertex="1">
          <mxGeometry x="732.5" y="-1855" width="120" height="60" as="geometry" />
        </mxCell>
        <mxCell id="VR-UZ06oaNitG5tPslY4-35" value="" style="edgeStyle=orthogonalEdgeStyle;rounded=0;orthogonalLoop=1;jettySize=auto;html=1;fontSize=14;exitX=0.5;exitY=1;exitDx=0;exitDy=0;" parent="1" source="VR-UZ06oaNitG5tPslY4-32" edge="1">
          <mxGeometry relative="1" as="geometry">
            <mxPoint x="-40" y="-1910" as="sourcePoint" />
            <mxPoint x="100" y="-1840" as="targetPoint" />
            <Array as="points">
              <mxPoint x="43" y="-1910" />
              <mxPoint x="100" y="-1910" />
            </Array>
          </mxGeometry>
        </mxCell>
        <mxCell id="VR-UZ06oaNitG5tPslY4-42" style="edgeStyle=orthogonalEdgeStyle;rounded=0;orthogonalLoop=1;jettySize=auto;html=1;exitX=0.5;exitY=1;exitDx=0;exitDy=0;fontSize=14;" parent="1" source="VR-UZ06oaNitG5tPslY4-32" edge="1">
          <mxGeometry relative="1" as="geometry">
            <mxPoint x="-70" y="-1830" as="targetPoint" />
            <Array as="points">
              <mxPoint x="43" y="-1910" />
              <mxPoint x="-70" y="-1910" />
            </Array>
          </mxGeometry>
        </mxCell>
        <mxCell id="VR-UZ06oaNitG5tPslY4-32" value="&amp;nbsp;transmission" style="ellipse;whiteSpace=wrap;html=1;fontSize=14;rounded=1;" parent="1" vertex="1">
          <mxGeometry x="-20" y="-1993" width="120" height="55" as="geometry" />
        </mxCell>
        <mxCell id="VR-UZ06oaNitG5tPslY4-36" value="RF TECHNIQULES LIKE MOD/DEMOD" style="shape=trapezoid;perimeter=trapezoidPerimeter;whiteSpace=wrap;html=1;fixedSize=1;fontSize=14;rounded=1;" parent="1" vertex="1">
          <mxGeometry x="40" y="-1710" width="120" height="85" as="geometry" />
        </mxCell>
        <mxCell id="VR-UZ06oaNitG5tPslY4-41" value="" style="edgeStyle=orthogonalEdgeStyle;rounded=0;orthogonalLoop=1;jettySize=auto;html=1;fontSize=14;" parent="1" source="VR-UZ06oaNitG5tPslY4-40" target="VR-UZ06oaNitG5tPslY4-36" edge="1">
          <mxGeometry relative="1" as="geometry" />
        </mxCell>
        <mxCell id="VR-UZ06oaNitG5tPslY4-40" value="MICROWAVE" style="rounded=1;whiteSpace=wrap;html=1;fontSize=14;" parent="1" vertex="1">
          <mxGeometry x="40" y="-1840" width="120" height="60" as="geometry" />
        </mxCell>
        <mxCell id="VR-UZ06oaNitG5tPslY4-49" value="" style="edgeStyle=orthogonalEdgeStyle;rounded=0;orthogonalLoop=1;jettySize=auto;html=1;fontSize=14;" parent="1" source="VR-UZ06oaNitG5tPslY4-43" target="VR-UZ06oaNitG5tPslY4-48" edge="1">
          <mxGeometry relative="1" as="geometry" />
        </mxCell>
        <mxCell id="VR-UZ06oaNitG5tPslY4-43" value="" style="rounded=1;whiteSpace=wrap;html=1;fontSize=14;" parent="1" vertex="1">
          <mxGeometry x="-130" y="-1830" width="120" height="60" as="geometry" />
        </mxCell>
        <mxCell id="VR-UZ06oaNitG5tPslY4-44" value="&amp;nbsp; &amp;nbsp; &amp;nbsp; &amp;nbsp; &amp;nbsp; &amp;nbsp;sound/ Acoustic&amp;nbsp;" style="text;html=1;resizable=0;autosize=1;align=center;verticalAlign=middle;points=[];fillColor=none;strokeColor=none;rounded=0;fontSize=14;" parent="1" vertex="1">
          <mxGeometry x="-175" y="-1815" width="170" height="30" as="geometry" />
        </mxCell>
        <mxCell id="VR-UZ06oaNitG5tPslY4-48" value="integer - mod/demod, and transmitting as sound" style="shape=trapezoid;perimeter=trapezoidPerimeter;whiteSpace=wrap;html=1;fixedSize=1;fontSize=14;rounded=1;" parent="1" vertex="1">
          <mxGeometry x="-130" y="-1710" width="120" height="80" as="geometry" />
        </mxCell>
        <mxCell id="VR-UZ06oaNitG5tPslY4-54" style="edgeStyle=orthogonalEdgeStyle;rounded=0;orthogonalLoop=1;jettySize=auto;html=1;exitX=1;exitY=0.5;exitDx=0;exitDy=0;fontSize=14;" parent="1" source="VR-UZ06oaNitG5tPslY4-50" edge="1">
          <mxGeometry relative="1" as="geometry">
            <mxPoint x="1120" y="-1910" as="targetPoint" />
            <Array as="points">
              <mxPoint x="1070" y="-1825" />
              <mxPoint x="1070" y="-1910" />
            </Array>
          </mxGeometry>
        </mxCell>
        <mxCell id="VR-UZ06oaNitG5tPslY4-58" style="edgeStyle=orthogonalEdgeStyle;rounded=0;orthogonalLoop=1;jettySize=auto;html=1;exitX=1;exitY=0.5;exitDx=0;exitDy=0;fontSize=14;" parent="1" source="VR-UZ06oaNitG5tPslY4-50" edge="1">
          <mxGeometry relative="1" as="geometry">
            <mxPoint x="1140" y="-1730" as="targetPoint" />
            <Array as="points">
              <mxPoint x="1073" y="-1825" />
              <mxPoint x="1073" y="-1730" />
            </Array>
          </mxGeometry>
        </mxCell>
        <mxCell id="VR-UZ06oaNitG5tPslY4-50" value="circuitry&amp;nbsp;" style="whiteSpace=wrap;html=1;fontSize=14;rounded=1;" parent="1" vertex="1">
          <mxGeometry x="932.5" y="-1855" width="120" height="60" as="geometry" />
        </mxCell>
        <mxCell id="VR-UZ06oaNitG5tPslY4-59" value="sending&amp;nbsp;" style="ellipse;whiteSpace=wrap;html=1;aspect=fixed;fontSize=14;" parent="1" vertex="1">
          <mxGeometry x="1120" y="-1950" width="80" height="80" as="geometry" />
        </mxCell>
        <mxCell id="VR-UZ06oaNitG5tPslY4-60" value="recieving" style="ellipse;whiteSpace=wrap;html=1;aspect=fixed;fontSize=14;" parent="1" vertex="1">
          <mxGeometry x="1140" y="-1770" width="80" height="80" as="geometry" />
        </mxCell>
        <mxCell id="VR-UZ06oaNitG5tPslY4-64" value="" style="edgeStyle=orthogonalEdgeStyle;rounded=0;orthogonalLoop=1;jettySize=auto;html=1;fontSize=14;" parent="1" source="VR-UZ06oaNitG5tPslY4-61" target="VR-UZ06oaNitG5tPslY4-63" edge="1">
          <mxGeometry relative="1" as="geometry" />
        </mxCell>
        <mxCell id="VR-UZ06oaNitG5tPslY4-61" value="understanding how to enable image transmission using walkie talkie over RF" style="whiteSpace=wrap;html=1;fontSize=14;rounded=1;" parent="1" vertex="1">
          <mxGeometry x="328.75" y="-1550" width="177.5" height="150" as="geometry" />
        </mxCell>
        <mxCell id="VR-UZ06oaNitG5tPslY4-66" value="" style="edgeStyle=orthogonalEdgeStyle;rounded=0;orthogonalLoop=1;jettySize=auto;html=1;fontSize=14;" parent="1" source="VR-UZ06oaNitG5tPslY4-63" target="VR-UZ06oaNitG5tPslY4-65" edge="1">
          <mxGeometry relative="1" as="geometry" />
        </mxCell>
        <mxCell id="VR-UZ06oaNitG5tPslY4-63" value="CONVERT SOUND TO IMAGE(done using pseudo hilbert curve)" style="whiteSpace=wrap;html=1;fontSize=14;rounded=1;" parent="1" vertex="1">
          <mxGeometry x="341.25" y="-1270" width="152.5" height="95" as="geometry" />
        </mxCell>
        <mxCell id="VR-UZ06oaNitG5tPslY4-67" style="edgeStyle=orthogonalEdgeStyle;rounded=0;orthogonalLoop=1;jettySize=auto;html=1;exitX=1;exitY=0.5;exitDx=0;exitDy=0;fontSize=14;" parent="1" source="VR-UZ06oaNitG5tPslY4-65" edge="1">
          <mxGeometry relative="1" as="geometry">
            <mxPoint x="600" y="-1140" as="targetPoint" />
            <Array as="points">
              <mxPoint x="490" y="-1048" />
              <mxPoint x="490" y="-1140" />
            </Array>
          </mxGeometry>
        </mxCell>
        <mxCell id="VR-UZ06oaNitG5tPslY4-69" style="edgeStyle=orthogonalEdgeStyle;rounded=0;orthogonalLoop=1;jettySize=auto;html=1;exitX=1;exitY=0.5;exitDx=0;exitDy=0;fontSize=14;" parent="1" source="VR-UZ06oaNitG5tPslY4-65" edge="1">
          <mxGeometry relative="1" as="geometry">
            <mxPoint x="590" y="-940" as="targetPoint" />
            <Array as="points">
              <mxPoint x="490" y="-1048" />
              <mxPoint x="490" y="-940" />
            </Array>
          </mxGeometry>
        </mxCell>
        <mxCell id="VR-UZ06oaNitG5tPslY4-74" value="" style="edgeStyle=orthogonalEdgeStyle;rounded=0;orthogonalLoop=1;jettySize=auto;html=1;fontSize=14;" parent="1" source="VR-UZ06oaNitG5tPslY4-65" target="VR-UZ06oaNitG5tPslY4-73" edge="1">
          <mxGeometry relative="1" as="geometry" />
        </mxCell>
        <mxCell id="VR-UZ06oaNitG5tPslY4-65" value="Transmitting sound as data packets&amp;nbsp;" style="whiteSpace=wrap;html=1;fontSize=14;rounded=1;" parent="1" vertex="1">
          <mxGeometry x="357.5" y="-1077.5" width="120" height="60" as="geometry" />
        </mxCell>
        <mxCell id="VR-UZ06oaNitG5tPslY4-71" value="network sniffing" style="ellipse;whiteSpace=wrap;html=1;aspect=fixed;fontSize=14;" parent="1" vertex="1">
          <mxGeometry x="600" y="-1180" width="80" height="80" as="geometry" />
        </mxCell>
        <mxCell id="VR-UZ06oaNitG5tPslY4-72" value="packet tracing" style="ellipse;whiteSpace=wrap;html=1;aspect=fixed;fontSize=14;" parent="1" vertex="1">
          <mxGeometry x="590" y="-980" width="80" height="80" as="geometry" />
        </mxCell>
        <mxCell id="VR-UZ06oaNitG5tPslY4-76" value="" style="edgeStyle=orthogonalEdgeStyle;rounded=0;orthogonalLoop=1;jettySize=auto;html=1;fontSize=14;" parent="1" source="VR-UZ06oaNitG5tPslY4-73" target="VR-UZ06oaNitG5tPslY4-75" edge="1">
          <mxGeometry relative="1" as="geometry" />
        </mxCell>
        <mxCell id="VR-UZ06oaNitG5tPslY4-81" value="" style="edgeStyle=orthogonalEdgeStyle;rounded=0;orthogonalLoop=1;jettySize=auto;html=1;fontSize=14;" parent="1" source="VR-UZ06oaNitG5tPslY4-73" target="VR-UZ06oaNitG5tPslY4-80" edge="1">
          <mxGeometry relative="1" as="geometry" />
        </mxCell>
        <mxCell id="VR-UZ06oaNitG5tPslY4-83" value="" style="edgeStyle=orthogonalEdgeStyle;rounded=0;orthogonalLoop=1;jettySize=auto;html=1;fontSize=14;" parent="1" source="VR-UZ06oaNitG5tPslY4-73" target="VR-UZ06oaNitG5tPslY4-82" edge="1">
          <mxGeometry relative="1" as="geometry" />
        </mxCell>
        <mxCell id="VR-UZ06oaNitG5tPslY4-73" value="Securing the comms protocol" style="rounded=1;whiteSpace=wrap;html=1;fontSize=14;" parent="1" vertex="1">
          <mxGeometry x="357.5" y="-800" width="120" height="60" as="geometry" />
        </mxCell>
        <mxCell id="VR-UZ06oaNitG5tPslY4-75" value="Encryption techniques while sending data" style="whiteSpace=wrap;html=1;fontSize=14;rounded=1;" parent="1" vertex="1">
          <mxGeometry x="557.5" y="-800" width="120" height="60" as="geometry" />
        </mxCell>
        <mxCell id="VR-UZ06oaNitG5tPslY4-80" value="making the waves non detectable and almost noiseless to human ear" style="whiteSpace=wrap;html=1;fontSize=14;rounded=1;" parent="1" vertex="1">
          <mxGeometry x="100" y="-800" width="177.5" height="60" as="geometry" />
        </mxCell>
        <mxCell id="VR-UZ06oaNitG5tPslY4-87" style="edgeStyle=orthogonalEdgeStyle;rounded=0;orthogonalLoop=1;jettySize=auto;html=1;exitX=0.5;exitY=1;exitDx=0;exitDy=0;fontSize=14;" parent="1" source="VR-UZ06oaNitG5tPslY4-82" edge="1">
          <mxGeometry relative="1" as="geometry">
            <mxPoint x="640" y="-450" as="targetPoint" />
            <Array as="points">
              <mxPoint x="418" y="-450" />
            </Array>
          </mxGeometry>
        </mxCell>
        <mxCell id="VR-UZ06oaNitG5tPslY4-82" value="gather all the components and physcially make a walkie talkie, using simul tools fro design ckt(cadence) and packet transmission(packet tracer)" style="rounded=1;whiteSpace=wrap;html=1;fontSize=14;" parent="1" vertex="1">
          <mxGeometry x="257.5" y="-605" width="320" height="110" as="geometry" />
        </mxCell>
        <mxCell id="VR-UZ06oaNitG5tPslY4-88" style="edgeStyle=orthogonalEdgeStyle;rounded=0;orthogonalLoop=1;jettySize=auto;html=1;fontSize=14;" parent="1" edge="1">
          <mxGeometry relative="1" as="geometry">
            <mxPoint x="640" y="-365" as="targetPoint" />
            <mxPoint x="420" y="-460" as="sourcePoint" />
            <Array as="points">
              <mxPoint x="418" y="-365" />
            </Array>
          </mxGeometry>
        </mxCell>
        <mxCell id="VR-UZ06oaNitG5tPslY4-89" style="edgeStyle=orthogonalEdgeStyle;rounded=0;orthogonalLoop=1;jettySize=auto;html=1;fontSize=14;" parent="1" edge="1">
          <mxGeometry relative="1" as="geometry">
            <mxPoint x="640" y="-245" as="targetPoint" />
            <mxPoint x="418" y="-370" as="sourcePoint" />
            <Array as="points">
              <mxPoint x="418" y="-245" />
            </Array>
          </mxGeometry>
        </mxCell>
        <mxCell id="VR-UZ06oaNitG5tPslY4-91" value="screen display" style="whiteSpace=wrap;html=1;aspect=fixed;fontSize=14;" parent="1" vertex="1">
          <mxGeometry x="640" y="-280" width="80" height="80" as="geometry" />
        </mxCell>
        <mxCell id="VR-UZ06oaNitG5tPslY4-92" value="transmission ckt" style="whiteSpace=wrap;html=1;aspect=fixed;fontSize=14;" parent="1" vertex="1">
          <mxGeometry x="640" y="-390" width="80" height="80" as="geometry" />
        </mxCell>
        <mxCell id="VR-UZ06oaNitG5tPslY4-93" value="electrcial ckt" style="whiteSpace=wrap;html=1;aspect=fixed;fontSize=14;" parent="1" vertex="1">
          <mxGeometry x="640" y="-495" width="80" height="80" as="geometry" />
        </mxCell>
        <mxCell id="VR-UZ06oaNitG5tPslY4-96" value="&lt;b&gt;&lt;u&gt;working of trasnmission&lt;/u&gt;&lt;/b&gt;&lt;br&gt;1. mod/demod of integers(converting data to frequency)&lt;br&gt;2. pseudo hilbert curve for images&lt;br&gt;.&amp;nbsp; &amp;nbsp; &amp;nbsp; &amp;nbsp; &amp;nbsp; &amp;nbsp; &amp;nbsp; &amp;nbsp; &amp;nbsp; &amp;nbsp; &amp;nbsp; &amp;nbsp; &amp;nbsp; &amp;nbsp; &amp;nbsp; &amp;nbsp; &amp;nbsp; &amp;nbsp; &amp;nbsp; &amp;nbsp; &amp;nbsp; &amp;nbsp; &amp;nbsp; &amp;nbsp; &amp;nbsp; &amp;nbsp; &amp;nbsp; &amp;nbsp; &amp;nbsp; &amp;nbsp; &amp;nbsp; &amp;nbsp; &amp;nbsp; &amp;nbsp; &amp;nbsp; &amp;nbsp; &amp;nbsp; &amp;nbsp; &amp;nbsp; &amp;nbsp; &amp;nbsp; &amp;nbsp; &amp;nbsp; &amp;nbsp; &amp;nbsp; &amp;nbsp; &amp;nbsp; &amp;nbsp; &amp;nbsp; &amp;nbsp; &amp;nbsp;3. transmission of sound over using mod and demod with storage and non storage devices (sending the sound through air)&lt;br&gt;" style="text;html=1;align=center;verticalAlign=middle;resizable=0;points=[];autosize=1;strokeColor=none;fillColor=none;fontSize=36;" parent="1" vertex="1">
          <mxGeometry x="-1120" y="-70" width="3000" height="190" as="geometry" />
        </mxCell>
        <mxCell id="QAIouCpgMFZIOZUsnLQx-1" value="" style="shape=stencil(lVrJblw3EPwaXQnuy9lx/sOA5UiIYxmynOXvU4TAp2H1vBr5NnpicemuXsm79OHHw6fv93fR/3h5fvrz/p/Hzy8Pd+m3uxgfvz3cPz++4Ndd+niXPnx5er7/4/np57fPr39//zRHzl9/Pf09Z/j3FefdKBMU/X/rQ3n98Pvr8K+P3y6GFzcSDQ/9fHgormQa7/35+Fhd5u2o+VNy2dP4NM7H5+D8oPE1ivHd1b6NxwRifMF5A42v4Xx8xXS7PKPLanx2fZcPBCD2U6sbcRufXRHyqc3VfX4oPMvxeZ+/SfljP2WXZ1/8uz6+uLjPH7w+QHJpF2iILqkVoIG2A7ILYoXSXdkpF6oLgtPgRNtlGvrS+nVAYpKGsczuOgAy2c8A2vUqaR0JkFwXes444s5rEKMLw8zZRQI0eYYMNe1bSjB9BfCu7dRImEL5iuHSrriUXW0C0NcGDkCT1o9/k1jnmmqFytSAg6qCrQD0nRoZihNSwpZIShmKE2zFjvNuobmtL6eKoxVg0wpQmd7gb1IG5F0mQJBeBhYX96hToovCHiqoVhkwhOLgl/xObxhtVoCx1HQBaOLQDdysDCjCRNtYkfLyDEIPPTFbAVCOrJtgAs2oFYZfUj+oMVwVihtmS+BSEvQe8K0EqHpLIDNtCVOoLTVXCJBlSBzZ5cSAJLzGCC56BqgkAHqoZktNkK/DXMyhlU23YrzGEbivAzy7SijOCwAMKJCJ6sxwxmljolnoYcZpsoci9VAa526YIquw21buuADYpMomMV/bDz3zOSUlZKc7NWpfYrgOiJyft6ABhVOHlmR8wAYirVCXKs+okfYY1/ryttcBkeND0+kPdlz2FUB4ydbMWS58oSozYA+R0lZYnAZQHQOjVVwCIOya7l2LNXNm3If0SxBr31eA42mCrVAccWkc1dYZNerOJfjCG1GUguKoLqlyI7pCgMOfn1lc3S1udFkOlMz0HmOF+uvZzHDNAFRJBtcbBwOqStYD5xoAdJWGIgSaFYY4AxJnVtyQikOZzmWxv1nYU0p2a4myKph3HiIaTzbFpAHUOxg6OwEgmRVUsyQWzqUnN4QXiCbuAqBiFsTqjZSiWqFe2ZIqd6NJ+m4B2jLh926pLalfHlpxqXHPaopVabpzjT8VJ/xM7FfEqkrFuSXDJRVGo8kdJr01IJpD37DRvq/wDhtNhhtDG8SwAM3vauSq+g7TggyZml4hWc2pQxdO1yeZtGOqBqBCylsL7dIghMOP9ZoFacU1w2+Vz/wyABGiWD8jFDcbFeYMaoXZzjH8DiqOZm6FILQrtiJSewNQZRMKbja5LhMgFAQc2psMQcjvOcg1mW3UZHKyIuvdWlf/+SInU30HJHGcJibp75Em8gphkeU0v6dUVzuBmbnuUpq5seqdJK6o+3GvcAbwlK5n2UDFlji/TzJQowwj34oapam+9GBNdy/tYRZm+6FRZyVV+pk+HCo5CTCXLZCbsjjQu5lqNAp6l87eG6cKykTr8tUXFbW6UJg9gH1Ls2ZXRb65gSg3KojKK5QiKznMN0xnQ3W+oQfbVlMWV82VRW66l5g5AqFqUWIFN6lAvtWSKiuZv2hky8ZdYBMFoAh7gGPkQ6f15TrA1Io4g7qnucin3tsbHHwdOpvhCtDYgqC5JCxomL5a7tLfj8g3kMXrLnDnGrwE6VzhSovpM6tLDpCJt5TkLSroSmQqWfoZOFe+UcjyogZeJRqAvPQ7iqTL9r3gN+bzRkrySm6YhmiQBXLOXL5C002t4BmANRX5kin9wNaq0srCepi3UyKiJNO5y/riEgBq6mZ9I48tEfmSrkYBoNIvHSXzmZQo7s5Nqku/vhzdAYgy+YbiiHxR14o5Li90AJrMTqaz3sk3yyK1QmW/FNOtlxcU2eON5npgZxx0X206Fbr5x6EVoHL+E4ok34zs9Bgh6ecOwQV6KhBl7lCPa8q3Il8/CMl8w9blEeZFJ3XvdY5YuGbSAa4effTDPmUbZL7v2O05SWNDCurJdvQDHuT9RLslsDOaUmAIMtzCNGn+oF1q4lvd4wXTae9gP6+XDhUMpuabl5cClV2Rl+oKHPrDEtfJ8GiEI2b37IT07N6+5VJtGM9Pm4JswnjzUkkm8X5dj17oVXgGk2keZ3/v8C5Y7Dn38PJ2y/PbHi85bwTpZcXl2S17mTj94gPGm8Px4+2t5JfHr19fn1pe/p/fVuLT67vM9PF/);lineShape=1;" vertex="1" parent="1">
          <mxGeometry x="689.1499062462062" y="-1190.3018035723398" width="85.56561962646741" height="284.7483730248709" as="geometry" />
        </mxCell>
        <mxCell id="QAIouCpgMFZIOZUsnLQx-2" value="" style="shape=stencil(lVfLchpBDPwarqoZaZ5nx/kPVxkHKsS4MHn9fbTZmgUJthPflkW9I7WklmYjD++7p7fthsP7+XT8uv25fz7vNvJpw7x/3W1P+7M+beRxIw8vx9P2y+n4/fV5/v32NFlOT9+OP6Yv/JpxTDFOIA6/5xctUap/33ye7Q/71yv7eAOohaSvAzhRzwZQCrWwDhAZ31sAgTivAxJTsidkoVTWAZkpsAGkQgXEUCIVC5BOBZxQOuVkAUJB1gFKYrAArsRpHdACtWYBSgMCNAqWpZiotnVAZ6rBlsbg+b59JinWo0ApAkCiaGOOnQSQ1IWiTUOsJOgEpST4mDMgSQGhWkDELrGPQWnGHrlK0vbAISdH6ghpjdNsAwgji2tJa+LsA7Kvvv0DCSqiRuwIpQo6rXfi4PgJ2L5Z+zoa6b58hSW+xSGNgOEJ1cpRFCooxZ2i7cxYcNG10ekLoFFDJ1RfpZoFxll2MSgAuqRlZMtCWxO6pHUqPoaA1aW4PORx5mqnuRN4nPmfvdxH7a6KhW3NTB2HHK2g6gswEya5c3WB7bMXr4D9X2bYlT3i5+P2bBPA+gY5FDyhEiGjjX0zS6UMRk6tVK0aJeUUbC81DjVZAJpk0P1FhpwvRbEo/v3dQsbMWwAdjs0k1G2Z6n6EGkGSB1SBmsrFN7MuD2hlU4HrVpA0lRnQqhpth5RqYAGsypipFw3GY4cpd38ASlukVr09jNiXtmpyAt8PvnUmSQbfV3l29hluqOGGUJ05oOpuhlrXMQv9d4tUU3mH9q6oL9vkin2z/jetQdD5cayui70uk7AePnZr+be9PlyuSC/7w2G+YV3/769U+mq+jsnjHw==);lineShape=1;" vertex="1" parent="1">
          <mxGeometry x="780.671146969567" y="-1102.4518508348183" width="40.594485889949" height="15.701084579272552" as="geometry" />
        </mxCell>
        <mxCell id="QAIouCpgMFZIOZUsnLQx-3" value="" style="shape=stencil(lVdJchsxDHyNrigA3M+O8w9XWY5VUSSXbGf5faAonMyAmnZ0k8doguxuAuAm3L0+P7xsN8qvb6fj1+2P3ePb8yZ82qjuDs/b0+7Nfm3C/SbcPR1P2y+n4/vh8fL3y8M58vzr2/H7eYWfF5xQzGeQ8q+/HyJx/PPl8yV+vzvM4huJLuOFUliP10i5LACVBKwfErW0iLcPvB4fC7W4iA+UQXxm0uX6xgDYT1GKYRHPxGD9Gv36TJIBn0otu/0L4LNVCuL4LHU9Xnja73TgQpxAhtYF7QDNXcO1LbkMoVAAe2qDxrFSawAwadoBJmNFLIm3aREqQIZaKTlalTJgqWaSugBYTiSEGaMsjWq8JewktyVThoEOBhD2gITOEChlD6gog3rhZvZaQwT1KRpQrspAU4PuM4A2D1B0au5emwlR0BnMawOAgV2vZCgUkTfsDM5M+VaWMjaT+rJhAAV17yz1kEGQDqOZMgXsb29XqzN604UofYn/vXIFeyn2KzxTWpHS1t3EAyoG6HDlIjpDoJI8ANaZ0PvN/MYhgFIaryh2aws3bcla7JAhCgRwuYlW7kPCDADNx8MZzBroDDcDdHAr4+IaqS5ZMhoqOkPxtBbu9fk6YKruszYqQAcbTmRZyKxRBzQ7RA8ImSoafxLlpVtt2Iho2LAq5FoQ1sEyqJt/zF1oS9Jr9cRSvyCrdcxPoA2QahOlaycBjiamkavEqZN8fSKeutlkCwog3hQqrmD0snl9ok++0IvCgVLYEyqpO/d6Bk+QWL8FEltvKz4eMWTXKg3xwHNCIQ77Ad15mBfMoqg+cm/ds/gI11f18WgI4y7PFJ97bVqLZx//wfqjvoB/9tOOxTPcT3J8RvjGG8Yvi1eo721v4I/j7ce/B/fTbr+/vNfn//cPdPt0edyH+98=);lineShape=1;" vertex="1" parent="1">
          <mxGeometry x="798.6591141384574" y="-1119.7315367455308" width="51.0562745849851" height="51.975190467265534" as="geometry" />
        </mxCell>
        <mxCell id="QAIouCpgMFZIOZUsnLQx-4" value="" style="shape=stencil(7VnLbhsxDPwaXwlK1POcpv8RIE5jNI0DJ339fbk1tJYo7xS59ZCb4wxXfI6G653cvD7evex3nl/fTsev+5+H+7fHnXzaeX94ftyfDm/6aSe3O7l5OJ72X07H78/3579f7hbk8unb8cfyhF9nu0qhLEaef5+/8MT17xefz/Cnw3MHL1T8AHdCFeJdHPASyKVtfKaUB3wUSh7hpQ74FEkCwvOIz+qhbOMT5RFfKjEjfA0DviZyGeVH3IjH/hTyEz4WFG/lEY/9zxQmvAD/NT9i8Qng45SfSgX4H4mzxaN+Cy3ba38yw4CFfJ0OAHhPYcJngHdUnMUHh/CzPwwamqkm2xAJNBBTCRbvQAE8RdMQoY3cRgHC6E/RlgL+J4ojPmvLgvxodCNfJR25CPLJtgAxNk66buCpji0dhApoaRcoG46TduZ1g0TecG7EMWRbZC2jABbVLjI0qmcmUDVNK49ZcpolEINEm1Y1qICoNYnRuFQoI6ZwFEYDnVXkUmLyJksFFi4pVY29rVF5kCW9K8S0hmvte71ZYyvTaqAXEJjOyo0N1251lMEJer2k8UKOCRLkhd7WAQrtDtoyEG8N0IQqoVy5k5FLmTxbg4xOiK2unQGaOOWsGKYTAGtXsYVbYgA0WfVekClL6AQ3xRBg86mBuWqTQKZXl9gYKLWBeVADe4JvcmArS9lkyeEToqWZtEa11d62Dg4XTgVktAZIYNSVhbqgPSBjnYdYrEEGhesUSFe5ALjyonG63kCqfPEpWYOMTtCop4GAUWfLM2qAhPlSucmgoMrpvBRrAKlPpnaNFBEL+NY6nQHjoeaJ+iIe6nlGC0qrs3yvBg6zwPsMdF+pRv8UWIcS2vP6FQykNVe7k4Taxvy6gSc3Np+Kg4w0otgLQjLeMsTOqDjYGkHrOgatwtQDYlIH4hj0shmASou3LqmGg8I72EqrqkNpVQesQWqKaEslmmVvWc7RLqOCyRQuwBhUuBqFpeIbbQMqIi25ZhiDE3uCijSPXHJNCHcLCl44Pjb0jw39P97QuRFV98rJQ3+MGimlebj1/GnCEEvwNekM8smNN7v7JoIGYrvbLqwFn19Nw0nb8Dfq68ZL38OVzdmtU28aCE9i4AymUbXo6IxGjyjdaiiGb0PF3hgMM6k3UjJwNLjTlsbw/kpNKXXOwDe5htcYLmjFvk1gvGLa3clB0l8p+AJPSCe+76X7P+H64fJ+/+Hw9HT+eaD/v/09QL86/5Ygt38A);lineShape=1;" vertex="1" parent="1">
          <mxGeometry x="871.4381814102176" y="-1131.0708473143873" width="29.4777697428806" height="59.46079422674127" as="geometry" />
        </mxCell>
        <mxCell id="QAIouCpgMFZIOZUsnLQx-5" value="" style="shape=stencil(lVfRbtswDPwavxKSKEvUc9f9R4GmS7AsKdJsa/9+9AzJFhNf0TfHubNN8o5nD/zwtn963Q3BvV0v55+7v4fn637gb0MIh9N+dzlc9Wjgx4EfXs6X3Y/L+ffpef79+jQhp6Nf5z/TFd5nnqfiJlJwH/MJESrp/5nvM/54OK3xTKN0hCzEcZsQEvHYEZKe4W0CR0rcEcZMMm4TIlPu7xClXuIuYQxUQkfgQtFtE5Kn2N+BHaUMCGK7FEJt9F1CjiS+I/hEARDEkcs9wVEGcyjBdsnRCEookTgZvAMPVBI5NngPplZyvX0rgJwHeCHphxYoFoAvlPrnjxSBKLxr9TWhQhXpDcRYhwQ4R/G3ExOBHSpGE5+UnGqFjaBuDXDGOVsCslph8jd3iIjgq09WNTCSnaoy3uga1CCldn0ZA7Km4rMdc0S+UVn0Vo4UUMWu7s9Fp2g/qi+D9WVBPmC7KdRnCD9SFIN3SBPZ1qurDtUrdjdqpKB6S21326V4bxUq/fVH7Jpil7tUzW7h+caWcMAt71aShpsr2QrUNPAOXyXIzYwnEYFNoenhexNoVxMgZK5/t6l5ymDbaciHflNoxgagOw15E/sxV6Xfj33N2N4IegkPEmoJ+dWbCFpeGvJGSktM388QsQtYMkXQJX3gfm4qLvSakGoLG15TDuBH8sniCzBPJNfjV6l4v0U2M6cHAts31N2zwiPvePLFNsiBkWl69M5RL6FAa+8oDd+stIG39Ua4TdtubvhAIxCEqwHf8L5KZKM/rsdLW5cb+C++7n+K14Pl2+LlcDzOnybr/+23iJ6av2P48R8=);lineShape=1;" vertex="1" parent="1">
          <mxGeometry x="866.7049751792711" y="-1117.722277441734" width="30.23883993259565" height="22.47178570568849" as="geometry" />
        </mxCell>
        <mxCell id="QAIouCpgMFZIOZUsnLQx-6" value="" style="shape=stencil(7VnJchQxDP2auaos7z6z/AdVJGSKkFAhbH+PzGCnJXe/KY5UcZvFryVZ0tPSp/Dqy927zzcn7748Pz1+vPl+fv98dwqvT96fH+5uns7P8ukU3pzCq9vHp5sPT49fH95fvn9+10/2T58ev/Un/LjgIjnfQd79vPwQAoX6+5e3l/P354fN+UJZn49M7I7Ps6cUFCC5IXIfUMgVDagUEgA0akkBcqBajgE+UKwKUBwVIMFnak4DCkUEaNboGsi1Y0BgygZQqEQA8JSzAjSxAfhBAGkBZOCHLiFqAA/PHALYAhKWEJMFNGw0a8c1TwFJYKreAv5c9BEgLBJqBgBnQ0MADXnaUWgaIKHBMJZ2JACjBRCjBRRgtABcsgAY3nXE5gaAwlsAaYmlDFjGJ/I6lmomRiqJxtrTpcFb4kpN00zx4xr2AaKSdpzQjEcAtn5IYTDVAbVWLSAmKCBS1c8PwkrICzY/e/CCyJPs1fqIVxyKI3I6d4SZMyCMSKw5j8UiWHq8TgQWygO5KX+b7J9P2D8v4rUA8RfQR8yzClEE+sjjjMOkEgJ9eppVcx7WBHGYzuMIS3NYHNwgX/e/dQmRnMjI4ExZKyQxgiJabsh0IyKTQUiLC9i4LFFBAEkp7QPpX2AQ+eGjCciQuiTtTRpIwwNtCJbrhCcC8DMv9JuuJH6115r94Jr9yFj6l1xhGUw8mGSmWiIGsZQjBR1LddLlfvJn8vpaKzZaCoYttNIsALpriZo2ukkrCoxueTxvAvAtCcB7CwiAUbsEb1VC4S0A24MVbPQ0cQLyuIYjgJWQqSAJlXywgAxIoF+iXySAOtLamA+2jkMS2mj3N4CIJZhmQQCwNDhnaUPMQuQqIqq5pnbNiNgsIAG6FwXaAqjI1ZWidvXGrKPgqLZEX0XYlGjD/UcRXpZ7QjzQVh5osI3pWWokiOtQhAvA5JBEB+YB67oCOwcB1AXgAFv25605hCQsJeJ6luYlrSEPzEq+ZRpkQ1skFDjttdnxbwAVBd9fA+LiaaESoFKNg7kmIMFpr8SdMZ0B0+SlqxeZjEq1G4PUZpnRUJtYRr8zATK8oXYjjeif3UOCAyjnofEEYKMX6kt4Mimj65w9XBut+L7bRq5sJjE4G7KtD9HB9qc3zjq2Qxxd4OGsoSWIUWjf45e9m8fTngwLTXeVPGPxqLu3zQkFpFGyi72IlwbLeBIhq3KxVT3DcZvndPeiPwoKdnb1ybiLnq3aPJ+HE/cz057v8yE8bwYNuaAE9El2TyrzP+KiardtIcO1kGSBidEY4dJGAsystpKH/Muzv94MMqgO9p3HuuoFidmDWqdNqddWvab5FP6NQML/RewA/F/E/gOL2IUEaoWk1xNoyQePt2LGBsk4eEvObgL65hYVhtmYbvoRj/qRYLu21PDYbTeZiUf13Y+9pV3wcIZxtj+SbqGCuHDLSz3MScuwGqaGR/os55G9znYKch61R84ynhAO2gDwKAKb82gU5jHPbc4j+lp2gOHKHnPn+R5lmZ3MOyPD+DHTXad8VBFsPAfMjX/7Uvj6efnw8gb69nx/f3mBvf3fvrGWny5vu8ObXw==);lineShape=1;" vertex="1" parent="1">
          <mxGeometry x="905.646280196811" y="-1147.5330954375354" width="57.311723094453555" height="64.47264567155378" as="geometry" />
        </mxCell>
        <mxCell id="QAIouCpgMFZIOZUsnLQx-7" value="" style="shape=stencil(7VnLktw2DPyauaJIAnydbec/XOV1dsrrXdd68/r7tDKhVgStTnx0lW8zI/WIABqNJnXRN1/v33+5u6Tw9eX56dPdH9cPL/cXfXtJ6fp4f/d8fcGni7676JuPT893vz4//fb44fb9y/vtzu3T56fft3/484ZLVbJtqBT+uv0Sq8T8zy+/3AAP18cDQE16mgCpiYVzgJmkPgFMJcVzQA5iOgGyijYCKNLzBCgmSpZUVMocdM1ihQC6lDgBWpFIYqhJSp0AHWlQCkgOUKVzgM5L6k2UxABAXACVpLVGKXPhepdYKSAUD8ikDjVIWgCV10GzB7AslT0nO71DkMC4UUXr8ggSdSliyQMaW1OW3DygsCWZtKUQ//bUGUAdoI2uPQOs3MisR3Vhn0kgQUMFdOmgToKGzthcuYolEWFKiGEOemMLyVI0T9eMOpAnZKkz+aBUiTAjSJuJYVE6YfdOzHE/cpDJ/epFCUocyP0xjn7fAYmKEi67dsNwYFXGgl0IMdEUWRGdlbjR7sxtdMqeU1FCbCiMzSFHmtIWRoXG/SiKnd/fgx9uXF0g6iG59bDGPKjVTjo62qAM5hSS3w/1muUuKm2zDpF3gCaJhNBAU2cYEu18zGInRjApjERQrzobBgXTyZKgXmGummYq2XAsTlCVK7ClMSkPAKbxFnxvAsBiwGVdn8CMW1uC7tRWKbjqltSofmnxxg0AI1MEgDRTA89sHODYCgDzkrgc537GXxQWNMgcPCCxoHeLcwAEsiRUus/0BvlYWsElpzF4QmRcUrEFYIRLtvgFABqjt40OPtSBGegNMMvSRkc2GPbRdwAweiPoOk8SVIZtZJBWN0q2UrLCRUnZAyqzMLsPPLYoSStC9Fzqo5Rn9NZFNdi+ZGN/WNLKYgD7zQMYvXWZ6Bs1OKCt5CMzd9OI5AH/IWTfB7Dqh6hiZJE65D0nBytGNw112JYdAMKz7d6yB4DTYGltC1sjVIOktWEEOkCidrKBrfOS2pjDZ17JOQej7QPjEF0VxEgAVcdW8PX/meqVNB6/bxhGBs7OJZo7KuEleB2XO8CowsDnVOet+pjB37aHdTmMUWmEd1jxumdgQVd/LLHty+j9bkFQzcg2YVDhOUcGBWN7ElRhljw0n7I9SRxblr3Mlc/b6J1V3V37t4kRfTOjl9i+qoRxeTfpaDWS1ZK9bMO3B5LWn8dJA/DzOOkHOE5CDOb4bXT3A+12aW2FCl8uvkcrnA3zAN2fHGCRbH7CTzrxzsZ3DsWbN5he5lgxn9yhMjb3bCJiZ14dXdtwBWcAxyVMGNbUADj5BkBJpbeBNlMDtqSxQ6vupQ8AttXAgHBs3YwPmyjRO9aY6e4nJc9WAJjOYCjnFUAKt5nBviyJxbCIAIJmJ3XgkpkHsDGKyR6XwlVuZr7vzdL/AODD64usj9eHh9t7sON1/+ILP91emum7vwE=);lineShape=1;" vertex="1" parent="1">
          <mxGeometry x="956.0163543738599" y="-1158.7411472527713" width="26.845701383825563" height="62.429184126996496" as="geometry" />
        </mxCell>
        <mxCell id="QAIouCpgMFZIOZUsnLQx-8" value="" style="shape=stencil(rVjLbhsxDPwaXwlRFPU4p+l/BIjTGE3jwElff19uDW0saj1Bgd7W66FEkZwhVzu5eX28e9nvYnh9Ox2/7n8e7t8ed/JpF+Ph+XF/OrzZ005ud3LzcDztv5yO35/vz79f7hbk8vTt+GNZ4dfZLmaSuFjF8Pv8Rijw3xefz/inw/MFnhNpGvCFWAA+EJcBb280XzeoxHXEK5UAN4ijQ1wpIY+UNAwGkUnBkWPyR4hKHK8biFJ0BpUKcCkVEh6TECmAHbRRcllTCuW6QWHvkhSqIKw1kuhgkNZAbxo0pjK6lCI1sEOrPqzJarGhTAcKY+aU+xrbW2SKeTSwagWHqBbXNhhkIQU+1UB13KEEEnBqS0QY41oKzFy29WQwqEIFECi1XjqrQeup2S5XS8R4hmYkr4AQtZfOalChaBjB2hjWi1xu+0RF/Q4NJE4osscniA/uyEYHcGTxKml4AYwWam79TFVB0qixxyfgT6ZQPT4i/vsiWvCICKTq8QL8aZSDx2fIZZLiA/pBHynNG2RAAzOYizQCGphBmmoIEa31/Vd8o4gklXL0eAUOlckf2xHWBOuExzVXPD5BvFNfwweQY+NM8vHMQCVmTlaojEI8VQTq49LniAs80qDU55SLmka9QCkXjxeQ37zB+QgoMMt07mPDlfqMk0YoiOcyqk2kb//VwAog+RSgWc1i6mtOu7Ju51iouqKIUIhS6rq2dstCDbBM1bcCG5UY0VK9chWF7dX+lvHQufZS2S4M6TqyGsQur9fGnDy6pBlOLRZEN+bY5IW0wgx0LO5kZEYNp3b5Xw1sigY7lObl1OZNNOZYEF3LsYkW8VOn6dFmZiRgyYpvdEkSVjz2BLI3yCVuvu9bl8iwj9dxg3cV3CacX5/XiXgTP03k9nWFNIz9txczVajZbRQMYwKIT6PmigiWxOxOgFOOhcd9RYWuydt48fm1eCG5S73hXeBRtqYWHmDHNDl1BRpgtqxFuRZoMxJaf/26escXUD2G1zFfjONZqLDDo7uEhRyunGF/WkauMT6mo2j97Md8LEH/etnyMd4e3m92Hg5PT+eLocv//U2QvTrfIsntHw==);lineShape=1;" vertex="1" parent="1">
          <mxGeometry x="996.2521494765651" y="-1164.3256813693404" width="32.72997114890201" height="73.64077897454325" as="geometry" />
        </mxCell>
        <mxCell id="QAIouCpgMFZIOZUsnLQx-9" value="" style="shape=stencil(rVfLbttADPwaXYldcp/nNP2PAHFqo64dOE4ff1+qghyTsscx0Jss7XjJ4XC4O8jD2/rpdTVweDse9t9XvzbPx/UgXwbmzW69OmyO+jTI4yAPL/vD6tth/757nn6/Po0rx6cf+5/jP/yecDEECmGEcfgzvUqU+N+LrxNgu9mdAXqhXM36WIkLAFTq0QA4U+sA0EiSAUgmQSHpDmJTyJQDBEQbUi4UMwQENoBSiFEOSqLNoWaKFQCYuBlASxTbdUALJNkAtDIlXgfUNLN+AihvoHBFy1QsoFNI1wE5EbMHVEBrinOKJy19yPEigpuv3LgF4DUWkmUSoHIqDcdSm2t/eQPKaVEGULdFu/VMjDKm6v5fIKedkm1PVVZCBCnAJawpAR1JnPc/AQJ1VOU0fz4DNADIlar4kBgIr7QFSUwBSLsWagtW0Q5NlepklKhgADuAWgzQUVXhuZAqZQFJd2LXCkoD2CG32UXPWiEDlkYX7R7QgZaESeoCgMQdZkM5AwgaJgsPa5SAWJl686Qio9d4nPIyVZBAXLjLyQP/z/pMwfZOE2qonZuvmfo+8guWWWWfHG0KcKPtxvDUIhSruxvjWQFO2TcOAOMONqQbRwzNoVuWbhxiVBjZ1gGfkrTQ1dq8QF1rvNGu53m8X+604MdOhC4vaqmW0kAVtX7xYzBAfnL2UwTPcT1bhHrHehWxaxwcT2Nv8DhfnUgh3sGn2kKyesD1Uptqdj3Ww93H8k8A9OHjFvCy2W6nS8T5d39r0FfTjUMe/wI=);lineShape=1;" vertex="1" parent="1">
          <mxGeometry x="936.7180459194515" y="-1077.700006679837" width="3.5306453035047105" height="31.49220306909578" as="geometry" />
        </mxCell>
        <mxCell id="QAIouCpgMFZIOZUsnLQx-16" value="" style="shape=stencil(fZbdcgIhDIWfZm8zQAg/17Z9j85U606tdqz9e/tmZ0c0uJ47xP0I5JwEBl59bp8/1kNwn6fj4W39M76ctgM/DCGM++36OJ50NPDjwKvN4bh+PR6+9i/z74/n6ctp9H74nlb4nbmSKZeJCu5vngmZ6jzzNAO7cX8FVKEsBuBKrgKg9oAE8gkCbLeUhEoEQKSUDZDLeWYRKIl8MEDRmHwfyBrBG6Amyu4+kDxxMoB3jhwgYu7TVAsVkFcWCs4CTBEoF4RctKeOxHIf8IXYpikHikAIf+MNUW94AGSSaoAoFIE3AlOyeWU+p2E5S9yfQZcQILVuQOwZdJNoS9Ls3wA5u2XZTIHECqeJ9kDpSaauRiNVcAY1QhdBzeLBli5WazpkSsBLV25uRaqWRyFawTQzRRIQYirJzq5atkBqLfouwqUxLBepthWb10vrWZY6UOAeyKCCtDV625mm9gmUC4Wc3VLJMMIE1BsA2FW9JraVlQB7n3c9oMKhCLEvIM1zBPZ25/umNQ1tVEC2G+fFCC8g398O2hNQuQlVu752DBfA+q0ptnqO5JFmeuIuo9DY7KjY71UxdJV4EntifPWorW++R/dC4t7V3DlIB5cHx2bc7eb3yvX//QNFp+bHDT/+Aw==);lineShape=1;" vertex="1" parent="1">
          <mxGeometry x="867.6677560867597" y="-919.1729023005382" width="3.5942613631658995" height="3.588643243352075" as="geometry" />
        </mxCell>
        <mxCell id="QAIouCpgMFZIOZUsnLQx-17" value="" style="shape=stencil(lVfLbhsxDPwaXwlRlETpnKb/ESBObdSNA8fp4+9Ld6HNivZO4dt6rVmK1MyQ2sjD++7pbbuJ4f18On7f/to/n3cb+bKJcf+62572Z3vayONGHl6Op+230/Hj9Xn6/fZ0WXl5+nH8efnC7wnXKOgFFMOf6UUkLf9efJ2WH/avi+Usfn0jZbC+UirDenvT2jogCkkcN6QUKgBUyiNACnFcB0ii2AZAKpRADilQHHPOSiUBQKYyAopSywDQqNYBoJkCyCFXCmNZNfS63QSU3I91zsHqBrakyR+0ZZVAhBr7judzECrg4BqTOOolKgEAhJKMAKGmAJApBx8hAfI1vdpSgeRrlarbUsU5mFzSWCUmBRE4BApjEpI7H9dC5JFMUknByVkSeUwi2Z5QhEJtJFNKxChrY7OLYGQC7GuRWvIARRECtei3VIGoayN2OUSqgBtVqTpBBOgzBuARYMakOAI7bgg8aQOoo2vrZVhLOvA95mplVefGdpT44NQJInWrug2wY4oewEijpetlsaUE3NjonYJPGhqTCWiskoRu6GuANnYU6zEB5WB+7zSt2DZq7x8L8lWkab3StED7brO+FopD9L4bUIsXUM6djrdbUPVltTZaAJesB+pYpWo9RtYBJVIeTcB6TAYRsnjAwp9vt/bS2TyHsCYDQpj3Or83EVZAV2sHrkyWNfIZY7Ozb2VYVxOYa4vFBAEicOvz0cwNYzywDU5+PDF+JzSHBm/f1keRqLOf4SLDOZT7SDgfdIKCC37ks0kZtcTgacFMDKh6NQW03lLXPj+6qrVsILVw5RbUwOaZohv1oPIj8ShLTDdreuNyqy34uo106pajhpN9g8L6LX3C/FyOBpdK7GhDghrBfbev/y63h8+L3sv+cJjuicv//cXQXk2XSnn8Cw==);lineShape=1;" vertex="1" parent="1">
          <mxGeometry x="916.8254954736094" y="-1062.629056095328" width="32.670101826313555" height="19.409777651326642" as="geometry" />
        </mxCell>
        <mxCell id="QAIouCpgMFZIOZUsnLQx-18" value="" style="shape=stencil(lVjZbhsxDPwavxISKYnSc5r+R4A4jdE0Dhz3+vtyYchdUd4J8uaDs+Ix5FC7k7v354e3/Y7D+/l0/L7/fXg8P+/ky4758Pq8Px3O9mkn9zu5ezqe9t9Ox5+vj5fvbw+L5fLpx/HX8oQ/F5wUKm1Bcfh7+aVQuvzw9WL/cnhd2wdSGewb5bBtz5lUB/solCsA2AGjQ7FRkG1AzFTKALAzawSAQI0HgAgV3gYoxTHkxBTztn2mHAf7HCmAnFoA4/NLoAhSpN7/UikB/yP34ztAM0UFAO0l6oAaqIITWKiFEZBJwAlGo5RHQKWKAMVXuUVikNQUKY8nNCYBPEpKzP4EAUGnQpJ90A0DXK+pdrLfJoYxdayDMnECgELZdXOlULYBRTw1SoLc1jABAmXgkpZe12s3lB7VTUBlag4gkEtWpur6sxGDmdSkt9cKkMDEaJNLqVIEaV1OGLlkta+g0gZwMyDZ4EQnJEppBCSqCJApFQ8QlCVja/CACBqoGZnjdAIqXCUNPuiAXGpTDNZxgK0GaM4l7ZXZ0IbQPViVWlDlGqkrdeu13ALE8QRrc0VRV+JJT5BGWyFi8oCGXCo+6AWA2dcml5CqG79b80FX5JL0Yb1Ka8VNPRfuA5eCO0FJ0BQQSg5QKCJA8nUwuiL2WY/GqYMSGK5WOJ4AEQHUa5YBGHWQrRbTFFDccjwFXVCWrnVdpVVRlj4NSH5nNQkKIEu1+P3HRA6tlLYeyVgHk1EFALV5PyqKCTXKUtE+rFerAJpLJfoYTIkZ9ENOfsOqAsmXTVHGGGqDIpe5q+x1w1K4zhjV2sil1Xy+jbC/3dZ31Yzbe2Xyy/oiY8An277dtrHQC0TN840pwA6KEzdsr0SFUJ9WNS6BA5jKmFVb6tAMCH4qWTegTXqWUOMFYF70lwdpfehs3JfcRml3ULR3x+lKyXizj6XnY3VpReJjKXVaonAH4EnSTYxA90vy3W8VQ6zOvgQB3qHN3nEUt5ndxtz1LcB9WNRTKPS227Iv4/CK2P/q9+3YH7Bl71SNu7Zv2efx+UKM7d1oTH0ubdl70YT3bctPHfOfP8qnjP6bAKL8fPat0If29uH/K6inw8vL5Q3W+n//ysp+urzukvt/);lineShape=1;" vertex="1" parent="1">
          <mxGeometry x="884.2466083083755" y="-1020.9365682282858" width="41.135114447667476" height="36.84124790347701" as="geometry" />
        </mxCell>
        <mxCell id="QAIouCpgMFZIOZUsnLQx-19" value="" style="shape=stencil(7VnLUtwwEPyavU5JGkkjnQn5D6pYwlYISy2Qx99nlI2MNbZ7wzFV3BZbjTSvnh55x1fP9zdP+11wzy+n49f9j8Pty/2OP+1CODze70+HF/214+sdX90dT/svp+Pr4+3576ebtrL9+nb83v7DzzPOe/KpoYL7dX7CQj7+efL5DHg4PM4AIZDIAEiOqmwDmCmMO+RIOQBAJS4DQJgc2CEmKuMOxVMBgORJRkB1FB0AJIp+BCRKGQAy+ToCMuUEAXYHoYBsyMQLQMU21DACCiUMCHEEVHIMAJE4WEBENmhqeAuQCgNXxQJQ8mlu5jEO3jlywOqoR14YUQoAFArZArIHALEFoYAACiLm7sVZ5AQBNNTZAlBRR09uNLoUciC/eXo91WiBucFaL+MOOUG3Km2YdE2BIqggBZhQ6yEFATIFHgAh9z23vGSK2isApYYs4tCpbaumTWaoE4AF6sI0Hsh1cl5dL8pKxaxHtVAyOWMwjFllktGjiQStnwjorTqpgvqfFe8sBAVktm4RR5dqAyvAp1VJbNwhaBohJ02kOAUtwtopwZaCJmoFtSOpV3sHxADjkCv5kTBiwoShxTsScXuCMjv1OE0AIUY9OlIam4myGqqFyFS8tQGyJHefTICImT6SxIVbQeDaicfUUEaoiOkLcbWAgFSAWxjtOoVsdtDFDij5tKknsYAECiiJ7YfqJUY2lC50JgB3bbMO0Gw1O0TYQHUHMZFO3W9bNmRjdL6olUwchATHIZsjlZ4sW0omBAtAWklfG93dhAfq6bk7cWZDRoDYm83MSwJ4SeNaFzQDlQ8vbIhQd+trNgDGJKA8Z4wOFNAOsshWTxEZXRfMN4mn9UgHq95aTSMVEO04ozswKtH3AnQAM/OPdiAP0luczSXVc0juqdIwswP73mLWm6KzyadiDNlQonVrEydYzHgjHQTyUlHaMjMcFRBoWWyQOu2sR4G7cpk0NOy5TR2OFuvwDhlAz2vkW4Gp2jrsCNAjXWjSRo5pImUg4ForGHlSy8ODbqJHMu1HRS/Ki0ajI0CkT5mbM+V4pHKhOXzM9n8BH7P9/zDbKwsZwIWple1sXz3UxSyWBRp1oitBZydvidBonYNNw8q5h3J9UAyWWzUfHahRZ8fEdgsJTHDWR+2yASTGYm5lfF+iHhpJSZ3MIAbODj+c+3Sz7iCrxNptCDh/sK1EBQCq5mhvGt4ugNaLuV+nztaj5pxtFbT1IF7FdjZdn9HVhC1L9Q/KH79MoEwJAd578f4PAP3xds9/d3h4OH8mmL+33wX00fmbAl//Bg==);lineShape=1;" vertex="1" parent="1">
          <mxGeometry x="919.7013895893142" y="-1037.825829835626" width="22.397713272289014" height="45.79235751150218" as="geometry" />
        </mxCell>
        <mxCell id="QAIouCpgMFZIOZUsnLQx-20" value="" style="shape=stencil(lVhbctswDDyNfzEgwed3mt4jM3FqT10747iv2xeqS1UEpc3kT5YXxBtYcScPb4en1/3O89vtevm6/3l8vh128mnn/fF82F+PN33ayeNOHl4u1/2X6+X7+fn++/VpQk5P3y4/phN+3eVSJpcnKc+/72+EQvj74vMdfzqeF/iYqPoOn6j4bXzIxKXDO0cSgQCT1F4gUqzbAuKtRd5RABr8YJIvJAwEIrneJIkUMtTwL4ZNIHgYJRHK0glEJg/SMJ0XewHVWUDeVEPq8yZUgQ8pUnG9QG1xWxXIGsQ+rFmNlG2BUin0TudIGeShZvJ9HlSnBwKOmZg7iSIwrjUS93EtiQJQUQLlPkzqFoO4alCMhupaHNYzV8j1YapCKYHamMt/Fkiwg1wl3/tQ1QcgoHnto7oI9LqGVmoLBRW44FpaF/gMWpopFosX4ACT65uhljZENvCmjBT/zvkmoLn16wY+FIsXGB829ifYzM72suIzqDlPKVh8AvbrzhjsQfkKdqCqv4y2SDttgQ8AH+2EVzzKrw54c35pHm3YU8f6AbMxUBwaDG1ZoZIsPoPzZfC3wnrw5OOARxNimCiVCrCf7bJRfIT95Yf5gHYNt2pZxD8CfxUfLB7Vm3IQM3Jzy+AGvgz1iQaoozhM6AwHrgz9hVbAR/FuJkCzgK5ixD80osNSQotVeWM2KeY2BNb3JLcOnxerzlCQ4+JtkZYIeWANdmoVB6tCDYgD/0jIh2TDOjEckAflZGw0ONj4ShNDryEluDlkHlQzcdTWRKug2l6Irq3/dQHfWn0mv4LZMlv6IQGyg0mDIfB43fhiPxGU8gjItOh5RkDailjvB2nzc64lisCFGGx1C6ykFKzLDJmvsnfvDZ6B/RPbrxaPzk/NvQUeFXa2G39O+hbebHyGNZTKeD4qUsVHQ2HhNFJ8SgafkP0D3uP4K9+oBo8+5yZ/TQvA4TjF09Yb9PeD1wLv4/Xh/x3Ey/F0ul9hLP+3dxb66n7fIY9/AA==);lineShape=1;" vertex="1" parent="1">
          <mxGeometry x="948.3338453974493" y="-1036.1673631846518" width="38.845548641419064" height="59.83866586229921" as="geometry" />
        </mxCell>
      </root>
    </mxGraphModel>
  </diagram>
  <diagram id="rKhpWWhfRy6fUePPZOVh" name="Page-2">
    <mxGraphModel dx="1038" dy="585" grid="1" gridSize="10" guides="1" tooltips="1" connect="1" arrows="1" fold="1" page="1" pageScale="1" pageWidth="850" pageHeight="1100" math="0" shadow="0">
      <root>
        <mxCell id="0" />
        <mxCell id="1" parent="0" />
      </root>
    </mxGraphModel>
  </diagram>
</mxfile>
